# xmcd
#
# Track frame offsets: 
#        150
#        2010
#        21149
#        36909
#        44435
#        51552
#        72380
#
# Disc length: 1187 seconds
#
# Revision: 0
# Processed by: cddbd v1.5.2PL0 Copyright (c) Steve Scherf et al.
# Submitted via: ExactAudioCopy v0.99pb4
#
DISCID=5d04a107
DTITLE=에피톤 프로젝트 - Short Stories 01 선인장
DYEAR=2010
DGENRE=Ballad
TTITLE0=Prelude
TTITLE1=선인장 (Vocal 차세정)
TTITLE2=선인장 (Acoustic ver)
TTITLE3=Sketch 1
TTITLE4=Sketch 2
TTITLE5=오늘 (vocal 차세정)
TTITLE6=봄날, 벚꽃 그리고 너 Strings
EXTD=
EXTT0=
EXTT1=
EXTT2=
EXTT3=
EXTT4=
EXTT5=
EXTT6=
PLAYORDER=
